<?xml version="1.0" encoding="utf-8"?>
<!-- Generator: Adobe Illustrator 16.0.0, SVG Export Plug-In . SVG Version: 6.00 Build 0)  -->
<!DOCTYPE svg PUBLIC "-//W3C//DTD SVG 1.1//EN" "http://www.w3.org/Graphics/SVG/1.1/DTD/svg11.dtd">
<svg version="1.1" id="Layer_1" xmlns="http://www.w3.org/2000/svg" xmlns:xlink="http://www.w3.org/1999/xlink" x="0px" y="0px"
	 width="72.937px" height="65.8px" viewBox="0 0 72.937 65.8" enable-background="new 0 0 72.937 65.8" xml:space="preserve">
<path fill="#FFFFFF" d="M36.458,2.398c-8.262,0-15.012,6.751-15.012,15.012c0,2.517,0.614,4.87,1.72,6.958
	c-4.567-1.109-10.122-1.955-16.731-1.955H3.228l0.782,3.127l7.506,30.024l0.469,1.876h1.955c8.519,0,13.762,1.217,16.81,2.345
	c1.524,0.564,2.492,1.123,3.05,1.486c0.557,0.363,0.625,0.391,0.625,0.391l0.704,0.782h1.095h0.469h1.095l0.704-0.782
	c0,0,0.067-0.027,0.625-0.391c0.557-0.363,1.525-0.922,3.049-1.486c3.048-1.128,8.292-2.345,16.811-2.345h1.955l0.469-1.876
	l7.506-30.024l0.782-3.127h-3.206c-6.573,0-12.131,0.796-16.653,1.876c1.073-2.065,1.642-4.402,1.642-6.88
	C51.469,9.149,44.718,2.398,36.458,2.398z M36.458,7.402c5.557,0,10.008,4.451,10.008,10.008c0,5.557-4.451,10.008-10.008,10.008
	S26.45,22.967,26.45,17.411C26.45,11.854,30.901,7.402,36.458,7.402z M9.717,27.731c7.779,0.384,14.136,1.734,18.296,3.284
	c3.355,1.25,5.004,2.216,5.942,2.814v21.893c-0.445-0.205-0.858-0.422-1.407-0.626c-3.386-1.254-8.93-2.307-16.654-2.502
	L9.717,27.731z M63.198,27.731L57.02,52.595c-7.724,0.195-13.268,1.248-16.653,2.502c-0.55,0.204-0.962,0.421-1.407,0.626V33.83
	c0.942-0.607,2.584-1.584,5.864-2.814C48.955,29.466,55.323,28.114,63.198,27.731z"/>
</svg>
