<?xml version="1.0" encoding="utf-8"?>
<!-- Generator: Adobe Illustrator 16.0.0, SVG Export Plug-In . SVG Version: 6.00 Build 0)  -->
<!DOCTYPE svg PUBLIC "-//W3C//DTD SVG 1.1//EN" "http://www.w3.org/Graphics/SVG/1.1/DTD/svg11.dtd">
<svg version="1.1" id="Layer_1" xmlns="http://www.w3.org/2000/svg" xmlns:xlink="http://www.w3.org/1999/xlink" x="0px" y="0px"
	 width="31.948px" height="31.948px" viewBox="0 0 31.948 31.948" enable-background="new 0 0 31.948 31.948" xml:space="preserve">
<g>
	<polygon fill="#EB5D43" points="7.277,7.277 7.277,24.67 10.116,24.67 10.116,17.393 21.832,17.393 21.832,24.67 24.671,24.67 
		24.671,7.277 21.832,7.277 21.832,14.554 10.116,14.554 10.116,7.277 	"/>
	<polygon fill="#EB5D43" points="0,0 0,0 0,13.755 2.839,13.755 2.839,2.839 14.555,2.839 14.555,10.082 17.394,10.082 
		17.394,2.839 29.109,2.839 29.109,13.755 31.948,13.755 31.948,0 31.948,0 0,0 	"/>
	<polygon fill="#EB5D43" points="29.109,29.109 17.394,29.109 17.394,21.832 14.555,21.832 14.555,29.109 2.839,29.109 
		2.839,18.193 0,18.193 0,31.948 0,31.948 0,31.948 31.948,31.948 31.948,31.948 31.948,18.193 29.109,18.193 	"/>
</g>
</svg>
