<?xml version="1.0" encoding="utf-8"?>
<!-- Generator: Adobe Illustrator 16.0.0, SVG Export Plug-In . SVG Version: 6.00 Build 0)  -->
<!DOCTYPE svg PUBLIC "-//W3C//DTD SVG 1.1//EN" "http://www.w3.org/Graphics/SVG/1.1/DTD/svg11.dtd">
<svg version="1.1" id="Layer_1" xmlns="http://www.w3.org/2000/svg" xmlns:xlink="http://www.w3.org/1999/xlink" x="0px" y="0px"
	 width="32px" height="31.917px" viewBox="0 0 32 31.917" enable-background="new 0 0 32 31.917" xml:space="preserve">
<g>
	<path fill="#EB5D43" d="M-62.058,31.917h-31.917V0h31.917V31.917z"/>
</g>
<g>
	<path fill="#EB5D43" d="M-117.939,31.917h-31.917V0h31.917V31.917z"/>
</g>
<g>
	<path fill="#EB5D43" d="M-173.939,31.917h-31.917V0h31.917V31.917z"/>
</g>
<g>
	<path fill="#60BCB1" d="M-230.022,31.917h-31.917V0h31.917V31.917z"/>
</g>
<g>
	<g>
		<path fill="#FFFFFF" d="M-246.765,23.183c-4.272,0-7.749-3.477-7.749-7.749c0-4.273,3.477-7.749,7.749-7.749
			s7.749,3.476,7.749,7.749C-239.016,19.707-242.492,23.183-246.765,23.183z M-246.765,8.978c-3.561,0-6.457,2.896-6.457,6.457
			c0,3.561,2.896,6.458,6.457,6.458s6.457-2.897,6.457-6.458C-240.308,11.874-243.204,8.978-246.765,8.978z"/>
	</g>
	<g>
		
			<rect x="-243.132" y="22.09" transform="matrix(-0.7071 -0.7071 0.7071 -0.7071 -424.8925 -130.5255)" fill="#FFFFFF" width="7.306" height="1.291"/>
	</g>
</g>
<circle fill="#EB5D43" cx="-21.9" cy="15.813" r="16"/>
<g>
	<text transform="matrix(1 0 0 1 -29.7266 19.8354)" fill="#FFFFFF" font-family="'OpenSans-Semibold'" font-size="13">en</text>
</g>
<circle fill="#EB5D43" cx="16" cy="15.958" r="16"/>
<g>
	<path fill="#FFFFFF" d="M20.832,9.958H19.34v9.877h1.492V9.958z M15.661,14.513c0.277,0.404,0.416,1,0.416,1.787
		c0,0.782-0.14,1.386-0.419,1.809s-0.677,0.635-1.193,0.635c-0.614,0-1.056-0.191-1.327-0.574s-0.406-1.002-0.406-1.857V16.09
		c0-0.762,0.136-1.316,0.41-1.663c0.272-0.347,0.706-0.521,1.298-0.521C14.977,13.907,15.384,14.109,15.661,14.513z M16.861,18.998
		c0.497-0.644,0.746-1.538,0.746-2.686c0-1.146-0.245-2.037-0.733-2.672c-0.489-0.635-1.171-0.952-2.047-0.952
		c-0.931,0-1.629,0.355-2.095,1.066h-0.076c-0.106-0.495-0.176-0.809-0.209-0.939H11.24v10.144h1.492v-2.875
		c0-0.127-0.03-0.487-0.089-1.08h0.089c0.491,0.64,1.181,0.959,2.069,0.959C15.677,19.962,16.364,19.641,16.861,18.998z"/>
</g>
<path fill="#FFFFFF" d="M-85.229,7.269H-70.8c1.37,0,2.49,1.121,2.49,2.492v14.428c0,1.37-1.12,2.49-2.49,2.49h-14.429
	c-1.37,0-2.493-1.12-2.493-2.49V9.761C-87.723,8.39-86.6,7.269-85.229,7.269z M-73.58,9.425c-0.482,0-0.875,0.395-0.875,0.875v2.091
	c0,0.481,0.393,0.875,0.875,0.875h2.193c0.48,0,0.874-0.394,0.874-0.875V10.3c0-0.481-0.394-0.875-0.874-0.875H-73.58z
	 M-70.505,15.478h-1.708c0.162,0.529,0.25,1.087,0.25,1.667c0,3.228-2.703,5.845-6.035,5.845c-3.331,0-6.033-2.617-6.033-5.845
	c0-0.58,0.088-1.138,0.249-1.667h-1.782v8.2c0,0.425,0.347,0.77,0.771,0.77h13.518c0.424,0,0.771-0.345,0.771-0.77L-70.505,15.478
	L-70.505,15.478z M-77.998,13.155c-2.152,0-3.897,1.69-3.897,3.778c0,2.085,1.745,3.777,3.897,3.777
	c2.153,0,3.898-1.692,3.898-3.777C-74.1,14.846-75.845,13.155-77.998,13.155z"/>
<path fill="#FFFFFF" d="M-188.479,12.712v-1.538c0-0.744,0.498-0.916,0.85-0.916s2.151,0,2.151,0V6.979l-2.961-0.017
	c-3.279,0-4.031,2.445-4.031,4.016v1.734h-1.897v2.306v1.521h1.914c0,4.334,0,9.569,0,9.569h3.827c0,0,0-5.284,0-9.569h2.846
	l0.139-1.504l0.213-2.323L-188.479,12.712L-188.479,12.712z"/>
<path fill="#FFFFFF" d="M-131.008,16.792l-4.677,2.523v-3.893v-1.176l2.108,1.147L-131.008,16.792z M-125.407,13.367
	c0,0-0.171-1.251-0.688-1.798c-0.658-0.718-1.398-0.718-1.738-0.762c-2.427-0.185-6.06-0.185-6.06-0.185h-0.008
	c0,0-3.633,0-6.06,0.185c-0.341,0.044-1.073,0.044-1.738,0.762c-0.519,0.547-0.682,1.798-0.682,1.798s-0.178,1.458-0.178,2.923v0.17
	v1.199c0,1.457,0.178,2.922,0.178,2.922s0.163,1.244,0.682,1.791c0.665,0.719,1.531,0.696,1.916,0.771
	c1.383,0.142,5.89,0.185,5.89,0.185s3.633-0.007,6.06-0.185c0.34-0.044,1.08-0.052,1.738-0.771c0.518-0.547,0.688-1.791,0.688-1.791
	s0.17-1.465,0.17-2.922v-1.117V16.29C-125.237,14.825-125.407,13.367-125.407,13.367L-125.407,13.367z"/>
</svg>
