<?xml version="1.0" encoding="utf-8"?>
<!-- Generator: Adobe Illustrator 16.0.0, SVG Export Plug-In . SVG Version: 6.00 Build 0)  -->
<!DOCTYPE svg PUBLIC "-//W3C//DTD SVG 1.1//EN" "http://www.w3.org/Graphics/SVG/1.1/DTD/svg11.dtd">
<svg version="1.1" id="Layer_1" xmlns="http://www.w3.org/2000/svg" xmlns:xlink="http://www.w3.org/1999/xlink" x="0px" y="0px"
	 width="32px" height="31.917px" viewBox="0 0 32 31.917" enable-background="new 0 0 32 31.917" xml:space="preserve">
<g>
	<path fill="#EB5D43" d="M-24.157,31.917h-31.917V0h31.917V31.917z"/>
</g>
<g>
	<path fill="#EB5D43" d="M-80.039,31.917h-31.917V0h31.917V31.917z"/>
</g>
<g>
	<path fill="#EB5D43" d="M-136.039,31.917h-31.917V0h31.917V31.917z"/>
</g>
<g>
	<path fill="#60BCB1" d="M-192.122,31.917h-31.917V0h31.917V31.917L-192.122,31.917z"/>
</g>
<g>
	<g>
		<path fill="#FFFFFF" d="M-208.864,23.183c-4.272,0-7.749-3.477-7.749-7.749c0-4.273,3.477-7.749,7.749-7.749
			s7.749,3.476,7.749,7.749C-201.115,19.707-204.592,23.183-208.864,23.183z M-208.864,8.978c-3.561,0-6.457,2.896-6.457,6.457
			c0,3.561,2.896,6.458,6.457,6.458c3.561,0,6.457-2.897,6.457-6.458C-202.407,11.874-205.304,8.978-208.864,8.978z"/>
	</g>
	<g>
		
			<rect x="-205.233" y="22.091" transform="matrix(-0.7071 -0.7071 0.7071 -0.7071 -360.1949 -103.725)" fill="#FFFFFF" width="7.306" height="1.291"/>
	</g>
</g>
<circle fill="#EB5D43" cx="16" cy="15.813" r="16"/>
<g>
	<path fill="#FFFFFF" d="M22.906,15.259c0-1.715-0.842-2.571-2.525-2.571c-0.475,0-0.906,0.091-1.295,0.272
		c-0.39,0.183-0.69,0.44-0.902,0.775h-0.076l-0.209-0.921H16.73v7.021h1.492v-3.498c0-0.875,0.146-1.5,0.438-1.872
		s0.754-0.559,1.384-0.559c0.474,0,0.819,0.134,1.038,0.399c0.218,0.268,0.326,0.671,0.326,1.213v4.316h1.498V15.259z M13.15,14.265
		c0.271,0.299,0.411,0.737,0.419,1.317h-3.187c0.055-0.575,0.226-1.014,0.511-1.313c0.286-0.301,0.666-0.451,1.14-0.451
		S12.879,13.967,13.15,14.265z M13.582,19.855c0.373-0.072,0.741-0.195,1.104-0.369v-1.212c-0.411,0.182-0.794,0.313-1.152,0.391
		c-0.357,0.078-0.744,0.117-1.158,0.117c-0.63,0-1.119-0.183-1.466-0.549s-0.531-0.89-0.552-1.571h4.678v-0.807
		c0-0.985-0.269-1.76-0.806-2.322c-0.538-0.563-1.27-0.845-2.196-0.845c-0.999,0-1.784,0.328-2.355,0.983
		c-0.571,0.656-0.857,1.558-0.857,2.705c0,1.117,0.308,1.994,0.924,2.631c0.615,0.637,1.469,0.955,2.561,0.955
		C12.784,19.962,13.209,19.926,13.582,19.855z"/>
</g>
<circle fill="#EB5D43" cx="53.9" cy="15.813" r="16"/>
<g>
	<text transform="matrix(1 0 0 1 48.0742 19.8354)" fill="#FFFFFF" font-family="'OpenSans-Semibold'" font-size="13">pl</text>
</g>
<path fill="#FFFFFF" d="M-47.329,7.269H-32.9c1.37,0,2.49,1.121,2.49,2.492v14.428c0,1.37-1.12,2.49-2.49,2.49h-14.429
	c-1.37,0-2.493-1.12-2.493-2.49V9.761C-49.822,8.39-48.699,7.269-47.329,7.269z M-35.68,9.425c-0.482,0-0.875,0.395-0.875,0.875
	v2.091c0,0.481,0.393,0.875,0.875,0.875h2.193c0.48,0,0.874-0.394,0.874-0.875V10.3c0-0.481-0.394-0.875-0.874-0.875H-35.68z
	 M-32.604,15.478h-1.708c0.162,0.529,0.25,1.087,0.25,1.667c0,3.228-2.703,5.845-6.035,5.845c-3.331,0-6.033-2.617-6.033-5.845
	c0-0.58,0.088-1.138,0.249-1.667h-1.782v8.2c0,0.425,0.347,0.77,0.771,0.77h13.518c0.424,0,0.771-0.345,0.771-0.77L-32.604,15.478
	L-32.604,15.478z M-40.098,13.155c-2.152,0-3.897,1.69-3.897,3.778c0,2.085,1.745,3.777,3.897,3.777
	c2.153,0,3.898-1.692,3.898-3.777C-36.199,14.846-37.944,13.155-40.098,13.155z"/>
<path fill="#FFFFFF" d="M-150.578,12.712v-1.538c0-0.744,0.498-0.916,0.85-0.916s2.151,0,2.151,0V6.979l-2.961-0.017
	c-3.279,0-4.031,2.445-4.031,4.016v1.734h-1.897v2.306v1.521h1.914c0,4.334,0,9.569,0,9.569h3.827c0,0,0-5.284,0-9.569h2.846
	l0.139-1.504l0.213-2.323L-150.578,12.712L-150.578,12.712z"/>
<path fill="#FFFFFF" d="M-93.107,16.792l-4.677,2.523v-3.893v-1.176l2.108,1.147L-93.107,16.792z M-87.507,13.367
	c0,0-0.171-1.251-0.688-1.798c-0.658-0.718-1.398-0.718-1.738-0.762c-2.427-0.185-6.06-0.185-6.06-0.185h-0.008
	c0,0-3.633,0-6.06,0.185c-0.341,0.044-1.073,0.044-1.738,0.762c-0.519,0.547-0.682,1.798-0.682,1.798s-0.178,1.458-0.178,2.923v0.17
	v1.199c0,1.457,0.178,2.922,0.178,2.922s0.163,1.244,0.682,1.791c0.665,0.719,1.531,0.696,1.916,0.771
	c1.383,0.142,5.89,0.185,5.89,0.185s3.633-0.007,6.06-0.185c0.34-0.044,1.08-0.052,1.738-0.771c0.518-0.547,0.688-1.791,0.688-1.791
	s0.17-1.465,0.17-2.922v-1.117V16.29C-87.337,14.825-87.507,13.367-87.507,13.367L-87.507,13.367z"/>
</svg>
