<?xml version="1.0" encoding="utf-8"?>
<!-- Generator: Adobe Illustrator 16.0.0, SVG Export Plug-In . SVG Version: 6.00 Build 0)  -->
<!DOCTYPE svg PUBLIC "-//W3C//DTD SVG 1.1//EN" "http://www.w3.org/Graphics/SVG/1.1/DTD/svg11.dtd">
<svg version="1.1" id="Layer_1" xmlns="http://www.w3.org/2000/svg" xmlns:xlink="http://www.w3.org/1999/xlink" x="0px" y="0px"
	 width="32.247px" height="32.247px" viewBox="0 0 32.247 32.247" enable-background="new 0 0 32.247 32.247" xml:space="preserve">
<path fill="#F15C40" d="M16.123,0C10.614,0,5.644,2.821,2.687,7.256V1.344H0v10.749h10.749V9.405H4.568
	c2.419-4.165,6.718-6.718,11.555-6.718c7.391,0,13.437,6.046,13.437,13.437c0,7.39-6.046,13.436-13.437,13.436
	c-6.449,0-12.092-4.568-13.167-11.018c-0.135-0.672-0.807-1.209-1.613-1.074c-0.672,0.134-1.209,0.806-1.074,1.611
	c1.344,7.66,8.063,13.168,15.854,13.168c8.868,0,16.124-7.256,16.124-16.123C32.247,7.256,24.991,0,16.123,0z"/>
</svg>
