<?xml version="1.0" encoding="utf-8"?>
<!-- Generator: Adobe Illustrator 16.0.0, SVG Export Plug-In . SVG Version: 6.00 Build 0)  -->
<!DOCTYPE svg PUBLIC "-//W3C//DTD SVG 1.1//EN" "http://www.w3.org/Graphics/SVG/1.1/DTD/svg11.dtd">
<svg version="1.1" id="Layer_1" xmlns="http://www.w3.org/2000/svg" xmlns:xlink="http://www.w3.org/1999/xlink" x="0px" y="0px"
	 width="85.841px" height="36.853px" viewBox="0 0 85.841 36.853" enable-background="new 0 0 85.841 36.853" xml:space="preserve">
<g>
	<polygon fill="#FFFFFF" points="44.854,27.919 44.854,26.998 40.963,26.998 40.963,28.036 43.376,28.036 40.885,32.043 
		40.885,32.965 44.905,32.965 44.905,31.928 42.364,31.928 	"/>
	<polygon fill="#FFFFFF" points="52.052,27.699 49.963,27.699 49.963,24.07 48.628,24.07 48.628,32.965 49.963,32.965 
		49.963,28.879 52.052,28.879 52.052,32.965 53.388,32.965 53.388,24.07 52.052,24.07 	"/>
	<rect x="55.009" y="24.248" fill="#FFFFFF" width="1.297" height="1.311"/>
	<rect x="55.009" y="26.998" fill="#FFFFFF" width="1.297" height="5.967"/>
	<path fill="#FFFFFF" d="M59.639,29.307c-0.493-0.221-0.934-0.428-0.934-0.895c0-0.376,0.233-0.545,0.584-0.545
		c0.362,0,0.583,0.156,0.583,0.714v0.104h1.168V28.27c0-0.947-0.831-1.336-1.725-1.336c-1.182,0-1.83,0.623-1.83,1.66
		c0,1.18,0.896,1.53,1.622,1.854c0.492,0.22,0.907,0.441,0.907,0.896v0.038c0,0.48-0.232,0.714-0.726,0.714
		s-0.701-0.246-0.701-0.714v-0.104H57.46v0.363c0,1.024,0.791,1.388,1.776,1.388c1.271,0,1.959-0.584,1.959-1.608v-0.285
		C61.195,29.981,60.352,29.631,59.639,29.307z"/>
	<path fill="#FFFFFF" d="M63.766,30.98v-2.944h1.037v-1.038h-1.037V24.6l-1.297,0.908v1.49h-0.688v1.038h0.688v2.944
		c0.038,1.53,0.635,2.049,1.971,2.049c0.182,0,0.363-0.026,0.519-0.064v-1.037C64.051,31.992,63.766,31.811,63.766,30.98z"/>
	<path fill="#FFFFFF" d="M67.864,26.934c-1.376,0-2.154,0.7-2.154,2.244v1.607c0,1.543,0.778,2.244,2.154,2.244
		c1.374,0,2.151-0.701,2.151-2.244v-1.607C70.016,27.634,69.238,26.934,67.864,26.934z M68.719,30.721
		c0,1.024-0.207,1.349-0.854,1.349c-0.649,0-0.857-0.324-0.857-1.349v-1.479c0-1.024,0.208-1.349,0.857-1.349
		c0.647,0,0.854,0.324,0.854,1.349V30.721z"/>
	<path fill="#FFFFFF" d="M72.512,27.972l-0.144-0.974h-1.102v5.967h1.297v-3.762c0-0.648,0.415-1.024,0.973-1.024
		c0.246,0,0.506,0.064,0.777,0.22l0.007-0.039l0.122-1.387c-0.131-0.037-0.286-0.052-0.491-0.052
		C73.238,26.934,72.745,27.361,72.512,27.972z"/>
	<rect x="75.096" y="24.248" fill="#FFFFFF" width="1.298" height="1.311"/>
	<rect x="75.096" y="26.998" fill="#FFFFFF" width="1.298" height="5.967"/>
	<path fill="#FFFFFF" d="M81.528,32.965v-4.15c0-1.258-0.713-1.881-1.983-1.881c-0.947,0-1.855,0.402-1.855,1.4v0.48h1.103v-0.168
		c0-0.52,0.272-0.74,0.739-0.74c0.454,0,0.7,0.182,0.7,0.74v0.868h-0.895c-1.414,0-1.855,0.907-1.855,1.815
		c0,1.258,0.856,1.699,1.608,1.699c0.584,0,1.025-0.272,1.245-0.674l0.156,0.506c-0.623,0.271-1.011,0.777-1.011,1.504
		c0,0.558,0.388,1.012,1.192,1.012c0.337,0,0.57-0.078,0.816-0.207v-0.714c-0.13,0.065-0.259,0.091-0.376,0.091
		c-0.298,0-0.532-0.143-0.532-0.48C80.581,33.626,80.867,33.275,81.528,32.965z M80.231,30.928c0,0.74-0.35,1.051-0.778,1.051
		c-0.415,0-0.699-0.272-0.699-0.688c0-0.531,0.246-0.83,0.791-0.83h0.687V30.928z"/>
	<path fill="#FFFFFF" d="M50.651,19.578v-1.855c0-1.479-0.805-2.127-1.712-2.127c-0.598,0-1.051,0.298-1.31,0.791l-0.104-0.726
		h-1.103v8.689h1.297v-3.308c0.273,0.402,0.688,0.648,1.22,0.648C49.847,21.691,50.651,21.057,50.651,19.578z M47.72,19.902v-2.4
		c0-0.544,0.468-0.856,0.869-0.856c0.506,0,0.766,0.363,0.766,1.155v1.816c0,0.713-0.233,1.023-0.766,1.023
		C48.188,20.641,47.72,20.369,47.72,19.902z"/>
	<polygon fill="#FFFFFF" points="62.387,18.631 64.19,21.627 65.733,21.627 63.736,18.358 65.461,15.661 64.099,15.661 
		62.387,18.32 62.387,12.548 61.09,12.548 61.09,21.627 62.387,21.627 	"/>
	<path fill="#FFFFFF" d="M68.159,15.596c-0.947,0-1.855,0.402-1.855,1.4v0.48h1.103v-0.168c0-0.519,0.272-0.739,0.739-0.739
		c0.454,0,0.701,0.181,0.701,0.739v0.869h-0.896c-1.414,0-1.854,0.907-1.854,1.815c0,1.258,0.855,1.699,1.608,1.699
		c0.583,0,1.024-0.272,1.244-0.674l0.182,0.609h1.012v-4.15C70.143,16.219,69.43,15.596,68.159,15.596z M68.847,19.59
		c0,0.74-0.351,1.051-0.779,1.051c-0.415,0-0.699-0.271-0.699-0.688c0-0.531,0.246-0.83,0.791-0.83h0.688V19.59z"/>
	<path fill="#FFFFFF" d="M72.789,17.853c0-0.805,0.362-1.297,0.895-1.297c0.454,0,0.713,0.233,0.713,0.986v4.085h1.298v-4.358
		c0-1.102-0.648-1.699-1.569-1.699c-0.623,0-1.142,0.337-1.414,0.843l-0.117-0.752h-1.102v5.966h1.297V17.853z"/>
	<polygon fill="#FFFFFF" points="75.123,12.756 73.749,12.756 73.035,14.87 73.891,14.87 	"/>
	<path fill="#FFFFFF" d="M56.111,19.448V17.84c0-1.543-0.778-2.244-2.153-2.244s-2.152,0.701-2.152,2.244v1.608
		c0,1.543,0.777,2.244,2.152,2.244S56.111,20.991,56.111,19.448z M54.814,19.383c0,1.024-0.207,1.349-0.856,1.349
		c-0.647,0-0.855-0.325-0.855-1.349v-1.479c0-1.024,0.208-1.349,0.855-1.349c0.649,0,0.856,0.324,0.856,1.349V19.383z"/>
	<path fill="#FFFFFF" d="M57.576,19.643c0.04,1.53,0.636,2.049,1.972,2.049c0.182,0,0.363-0.025,0.52-0.064V20.59
		c-0.908,0.064-1.194-0.117-1.194-0.947v-2.944h1.038v-1.038h-1.038v-2.399l-1.297,0.908v1.492H56.89v1.038h0.687V19.643z"/>
	<path fill="#FFFFFF" d="M43.414,16.429c-0.727-0.337-1.388-0.648-1.388-1.479c0-0.752,0.285-1.116,0.998-1.116
		c0.701,0,0.986,0.285,0.986,0.908v0.325h1.258v-0.519c0-1.167-0.843-1.88-2.244-1.88c-1.387,0-2.333,0.752-2.333,2.283
		c0,1.764,1.192,2.256,2.179,2.71c0.688,0.298,1.258,0.584,1.258,1.479v0.049c0,0.985-0.364,1.336-1.129,1.336
		c-0.79,0-1.103-0.298-1.103-1.141v-0.324h-1.258v0.519c0,1.465,0.882,2.113,2.36,2.113c1.582,0,2.465-0.805,2.465-2.503v-0.14
		C45.464,17.284,44.374,16.844,43.414,16.429z"/>
	<path fill="#FFFFFF" d="M54.113,6.699c0-0.804,0.363-1.297,0.895-1.297c0.454,0,0.714,0.233,0.714,0.986v4.085h1.297V6.439
		c0.064-0.648,0.415-1.038,0.883-1.038c0.454,0,0.713,0.233,0.713,0.986v4.085h1.296V6.115c0-1.102-0.647-1.699-1.568-1.699
		c-0.649,0-1.194,0.376-1.453,0.921c-0.245-0.597-0.765-0.921-1.439-0.921c-0.622,0-1.142,0.337-1.413,0.843l-0.117-0.752h-1.103
		v5.966h1.297V6.699z"/>
	<path fill="#FFFFFF" d="M43.375,1.579h-1.153h-1.337v8.895h0.597h1.894c1.621,0,2.556-0.765,2.556-2.49V4.082
		C45.931,2.344,44.996,1.579,43.375,1.579z M44.595,7.775c0,1.219-0.337,1.53-1.22,1.53h-1.153v-6.56h1.153
		c0.883,0,1.22,0.311,1.22,1.53V7.775z"/>
	<path fill="#FFFFFF" d="M49.38,10.538c1.375,0,2.152-0.7,2.152-2.244V6.686c0-1.543-0.777-2.244-2.152-2.244
		s-2.153,0.7-2.153,2.244v1.608C47.227,9.838,48.005,10.538,49.38,10.538z M48.523,6.751c0-1.024,0.208-1.349,0.856-1.349
		s0.856,0.325,0.856,1.349v1.479c0,1.024-0.208,1.349-0.856,1.349s-0.856-0.324-0.856-1.349V6.751z"/>
	<polygon fill="#FFFFFF" points="10.097,8.863 10.097,26.274 12.939,26.274 12.939,18.989 24.666,18.989 24.666,26.274 
		27.509,26.274 27.509,8.863 24.666,8.863 24.666,16.147 12.939,16.147 12.939,8.863 	"/>
	<polygon fill="#FFFFFF" points="2.812,1.579 2.813,1.579 2.812,15.348 5.653,15.348 5.653,4.42 17.382,4.42 17.382,11.671 
		20.224,11.671 20.224,4.42 31.951,4.42 31.951,15.348 34.793,15.348 34.793,1.579 34.793,1.579 2.812,1.579 	"/>
	<polygon fill="#FFFFFF" points="31.951,30.717 20.224,30.717 20.224,23.433 17.382,23.433 17.382,30.717 5.653,30.717 5.653,19.79 
		2.812,19.79 2.813,33.559 2.812,33.559 2.812,33.56 34.793,33.56 34.793,33.559 34.793,19.79 31.951,19.79 	"/>
</g>
</svg>
