<?xml version="1.0" encoding="utf-8"?>
<!-- Generator: Adobe Illustrator 16.0.0, SVG Export Plug-In . SVG Version: 6.00 Build 0)  -->
<!DOCTYPE svg PUBLIC "-//W3C//DTD SVG 1.1//EN" "http://www.w3.org/Graphics/SVG/1.1/DTD/svg11.dtd">
<svg version="1.1" id="Layer_1" xmlns="http://www.w3.org/2000/svg" xmlns:xlink="http://www.w3.org/1999/xlink" x="0px" y="0px"
	 width="236.969px" height="101.747px" viewBox="0 0 236.969 101.747" enable-background="new 0 0 236.969 101.747"
	 xml:space="preserve">
<g>
	<polygon fill="#010202" points="126.563,79.296 126.563,76.525 114.85,76.525 114.85,79.649 122.113,79.649 114.615,91.712 
		114.615,94.486 126.719,94.486 126.719,91.362 119.067,91.362 	"/>
	<polygon fill="#010202" points="148.23,78.632 141.944,78.632 141.944,67.708 137.924,67.708 137.924,94.486 141.944,94.486 
		141.944,82.187 148.23,82.187 148.23,94.486 152.253,94.486 152.253,67.708 148.23,67.708 	"/>
	<rect x="157.133" y="68.248" fill="#010202" width="3.905" height="3.943"/>
	<rect x="157.133" y="76.525" fill="#010202" width="3.905" height="17.961"/>
	<path fill="#010202" d="M171.072,83.474c-1.484-0.664-2.812-1.287-2.812-2.693c0-1.132,0.702-1.64,1.757-1.64
		c1.094,0,1.757,0.468,1.757,2.147v0.313h3.515V80.35c0-2.849-2.5-4.021-5.193-4.021c-3.554,0-5.506,1.873-5.506,4.996
		c0,3.555,2.694,4.607,4.88,5.584c1.484,0.664,2.733,1.329,2.733,2.695v0.115c0,1.446-0.702,2.148-2.186,2.148
		c-1.484,0-2.109-0.741-2.109-2.148V89.41h-3.396v1.092c0,3.086,2.383,4.18,5.349,4.18c3.827,0,5.896-1.758,5.896-4.843V88.98
		C175.757,85.505,173.219,84.451,171.072,83.474z"/>
	<path fill="#010202" d="M183.495,88.511v-8.862h3.123v-3.124h-3.123v-7.223l-3.904,2.733v4.489h-2.069v3.124h2.069v8.862
		c0.116,4.607,1.912,6.17,5.935,6.17c0.546,0,1.093-0.08,1.561-0.195v-3.124C184.354,91.557,183.495,91.009,183.495,88.511z"/>
	<path fill="#010202" d="M195.832,76.33c-4.139,0-6.482,2.107-6.482,6.754v4.842c0,4.646,2.344,6.756,6.482,6.756
		c4.138,0,6.48-2.11,6.48-6.756v-4.842C202.313,78.437,199.97,76.33,195.832,76.33z M198.408,87.731c0,3.083-0.625,4.06-2.576,4.06
		c-1.952,0-2.578-0.977-2.578-4.06v-4.452c0-3.084,0.626-4.061,2.578-4.061c1.951,0,2.576,0.977,2.576,4.061V87.731z"/>
	<path fill="#010202" d="M209.824,79.454l-0.431-2.929h-3.318v17.961h3.904V83.163c0-1.952,1.249-3.085,2.929-3.085
		c0.74,0,1.521,0.195,2.342,0.663l0.02-0.12l0.366-4.174c-0.394-0.109-0.86-0.156-1.479-0.156
		C212.009,76.33,210.525,77.618,209.824,79.454z"/>
	<rect x="217.604" y="68.248" fill="#010202" width="3.903" height="3.943"/>
	<rect x="217.604" y="76.525" fill="#010202" width="3.903" height="17.961"/>
	<path fill="#010202" d="M236.969,94.486V81.992c0-3.789-2.146-5.662-5.974-5.662c-2.85,0-5.583,1.211-5.583,4.216v1.446h3.318
		v-0.508c0-1.563,0.82-2.225,2.225-2.225c1.367,0,2.109,0.545,2.109,2.225v2.615h-2.695c-4.254,0-5.583,2.732-5.583,5.467
		c0,3.786,2.578,5.115,4.843,5.115c1.757,0,3.084-0.821,3.747-2.031l0.47,1.523c-1.874,0.818-3.046,2.342-3.046,4.527
		c0,1.68,1.172,3.046,3.593,3.046c1.015,0,1.717-0.233,2.459-0.624v-2.146c-0.391,0.194-0.78,0.271-1.133,0.271
		c-0.896,0-1.6-0.429-1.6-1.443C234.119,96.476,234.978,95.421,236.969,94.486z M233.064,88.354c0,2.228-1.055,3.163-2.342,3.163
		c-1.251,0-2.109-0.82-2.109-2.069c0-1.6,0.742-2.498,2.382-2.498h2.069V88.354z"/>
	<path fill="#010202" d="M144.016,54.185v-5.583c0-4.451-2.42-6.403-5.154-6.403c-1.796,0-3.162,0.896-3.943,2.38l-0.313-2.185
		h-3.318v26.159h3.904v-9.957c0.82,1.21,2.069,1.953,3.67,1.953C141.596,60.55,144.016,58.636,144.016,54.185z M135.191,55.162
		v-7.223c0-1.64,1.406-2.577,2.615-2.577c1.523,0,2.305,1.093,2.305,3.477v5.464c0,2.148-0.703,3.084-2.305,3.084
		C136.598,57.386,135.191,56.566,135.191,55.162z"/>
	<polygon fill="#010202" points="179.346,51.336 184.773,60.355 189.419,60.355 183.406,50.515 188.598,42.395 184.498,42.395 
		179.346,50.399 179.346,33.024 175.441,33.024 175.441,60.355 179.346,60.355 	"/>
	<path fill="#010202" d="M196.719,42.2c-2.85,0-5.583,1.209-5.583,4.215v1.446h3.319v-0.508c0-1.562,0.82-2.225,2.226-2.225
		c1.367,0,2.108,0.546,2.108,2.225v2.617h-2.693c-4.256,0-5.583,2.731-5.583,5.465c0,3.787,2.575,5.116,4.841,5.116
		c1.756,0,3.085-0.822,3.748-2.032l0.547,1.837h3.045V47.861C202.693,44.073,200.546,42.2,196.719,42.2z M198.789,54.224
		c0,2.227-1.053,3.162-2.343,3.162c-1.249,0-2.107-0.82-2.107-2.069c0-1.601,0.741-2.499,2.38-2.499h2.07V54.224z"/>
	<path fill="#010202" d="M210.657,48.993c0-2.421,1.094-3.905,2.695-3.905c1.366,0,2.147,0.703,2.147,2.968v12.299h3.904v-13.12
		c0-3.317-1.951-5.114-4.725-5.114c-1.875,0-3.437,1.015-4.255,2.537l-0.353-2.263h-3.318v17.96h3.903V48.993z"/>
	<polygon fill="#010202" points="217.686,33.648 213.548,33.648 211.4,40.013 213.977,40.013 	"/>
	<path fill="#010202" d="M160.452,53.794v-4.841c0-4.645-2.343-6.753-6.48-6.753c-4.14,0-6.481,2.108-6.481,6.753v4.841
		c0,4.646,2.342,6.756,6.481,6.756C158.109,60.55,160.452,58.441,160.452,53.794z M156.547,53.599c0,3.084-0.623,4.061-2.575,4.061
		s-2.577-0.977-2.577-4.061v-4.451c0-3.085,0.625-4.061,2.577-4.061s2.575,0.976,2.575,4.061V53.599z"/>
	<path fill="#010202" d="M164.864,54.38c0.117,4.607,1.912,6.17,5.934,6.17c0.548,0,1.094-0.08,1.562-0.195V57.23
		c-2.732,0.195-3.59-0.352-3.59-2.85v-8.862h3.122v-3.123h-3.122v-7.223l-3.905,2.732v4.491h-2.069v3.123h2.069V54.38z"/>
	<path fill="#010202" d="M122.229,44.705c-2.185-1.015-4.178-1.952-4.178-4.451c0-2.265,0.86-3.357,3.007-3.357
		c2.109,0,2.968,0.858,2.968,2.732v0.976h3.787v-1.561c0-3.514-2.538-5.662-6.755-5.662c-4.177,0-7.027,2.264-7.027,6.872
		c0,5.31,3.592,6.793,6.561,8.16c2.068,0.898,3.786,1.758,3.786,4.451v0.148c0,2.967-1.094,4.022-3.396,4.022
		c-2.381,0-3.319-0.897-3.319-3.437v-0.976h-3.786v1.562c0,4.412,2.654,6.365,7.105,6.365c4.762,0,7.418-2.423,7.418-7.537v-0.422
		C128.398,47.281,125.119,45.954,122.229,44.705z"/>
	<path fill="#010202" d="M154.438,15.415c0-2.42,1.095-3.904,2.693-3.904c1.367,0,2.148,0.702,2.148,2.967v12.299h3.903V14.634
		c0.195-1.951,1.25-3.123,2.656-3.123c1.366,0,2.147,0.702,2.147,2.967v12.299h3.904V13.659c0-3.319-1.953-5.115-4.726-5.115
		c-1.952,0-3.592,1.131-4.372,2.772c-0.741-1.796-2.303-2.772-4.332-2.772c-1.875,0-3.438,1.015-4.258,2.538l-0.351-2.265h-3.318
		v17.96h3.903V15.415z"/>
	<path fill="#010202" d="M122.111,0h-3.473h-4.023v26.777h1.797h5.699c4.881,0,7.691-2.304,7.691-7.497V7.535
		C129.803,2.304,126.992,0,122.111,0z M125.782,18.656c0,3.67-1.015,4.607-3.671,4.607h-3.473V3.515h3.473
		c2.656,0,3.671,0.936,3.671,4.606V18.656z"/>
	<path fill="#010202" d="M140.188,26.973c4.139,0,6.482-2.108,6.482-6.755v-4.841c0-4.646-2.344-6.755-6.482-6.755
		s-6.48,2.108-6.48,6.755v4.841C133.707,24.864,136.049,26.973,140.188,26.973z M137.611,15.572c0-3.084,0.624-4.061,2.576-4.061
		s2.578,0.976,2.578,4.061v4.451c0,3.084-0.626,4.061-2.578,4.061s-2.576-0.976-2.576-4.061V15.572z"/>
	<polygon fill="#EB5D43" points="21.93,21.93 21.93,74.345 30.486,74.345 30.486,52.415 65.79,52.415 65.79,74.345 74.346,74.345 
		74.346,21.93 65.79,21.93 65.79,43.859 30.486,43.859 30.486,21.93 	"/>
	<polygon fill="#EB5D43" points="0,0.001 -0.002,0.001 0,41.451 8.555,41.451 8.555,8.555 43.86,8.555 43.86,30.382 52.416,30.382 
		52.416,8.555 87.721,8.555 87.721,41.451 96.274,41.451 96.274,0.001 96.274,0 0,0 	"/>
	<polygon fill="#EB5D43" points="87.721,87.72 52.416,87.72 52.416,65.791 43.86,65.791 43.86,87.72 8.555,87.72 8.555,54.824 
		0,54.824 -0.002,96.275 0,96.275 0,96.276 96.274,96.276 96.274,96.275 96.274,54.824 87.721,54.824 	"/>
</g>
</svg>
