<?xml version="1.0" encoding="utf-8"?>
<!-- Generator: Adobe Illustrator 16.0.0, SVG Export Plug-In . SVG Version: 6.00 Build 0)  -->
<!DOCTYPE svg PUBLIC "-//W3C//DTD SVG 1.1//EN" "http://www.w3.org/Graphics/SVG/1.1/DTD/svg11.dtd">
<svg version="1.1" id="Layer_1" xmlns="http://www.w3.org/2000/svg" xmlns:xlink="http://www.w3.org/1999/xlink" x="0px" y="0px"
	 width="31.917px" height="31.917px" viewBox="0 0 31.917 31.917" enable-background="new 0 0 31.917 31.917" xml:space="preserve">
<g>
	<path fill="#EB5D43" d="M87.799,31.917H55.882V0h31.917V31.917z"/>
</g>
<g>
	<path fill="#EB5D43" d="M31.917,31.917H0V0h31.917V31.917z"/>
</g>
<g>
	<path fill="#EB5D43" d="M-24.083,31.917H-56V0h31.917V31.917z"/>
</g>
<g>
	<path fill="#60BCB1" d="M-80.166,31.917h-31.917V0h31.917V31.917z"/>
</g>
<g>
	<g>
		<path fill="#FFFFFF" d="M-96.908,23.183c-4.272,0-7.749-3.476-7.749-7.749s3.477-7.749,7.749-7.749s7.749,3.476,7.749,7.749
			S-92.636,23.183-96.908,23.183z M-96.908,8.978c-3.561,0-6.457,2.896-6.457,6.457s2.896,6.458,6.457,6.458
			s6.457-2.897,6.457-6.458S-93.348,8.978-96.908,8.978z"/>
	</g>
	<g>
		
			<rect x="-93.284" y="22.097" transform="matrix(0.7071 0.7071 -0.7071 0.7071 -10.1688 70.0363)" fill="#FFFFFF" width="7.306" height="1.291"/>
	</g>
</g>
<circle fill="#EB5D43" cx="127.956" cy="15.813" r="16"/>
<g>
	<text transform="matrix(1 0 0 1 120.1299 19.8359)" fill="#FFFFFF" font-family="'OpenSans-Semibold'" font-size="13">en</text>
</g>
<circle fill="#EB5D43" cx="165.856" cy="15.813" r="16"/>
<g>
	<text transform="matrix(1 0 0 1 160.0303 19.8359)" fill="#FFFFFF" font-family="'OpenSans-Semibold'" font-size="13">pl</text>
</g>
<path fill="#FFFFFF" d="M64.627,7.269h14.429c1.37,0,2.49,1.121,2.49,2.492v14.428c0,1.37-1.12,2.49-2.49,2.49H64.627
	c-1.37,0-2.493-1.12-2.493-2.49V9.761C62.134,8.39,63.257,7.269,64.627,7.269z M76.276,9.425c-0.482,0-0.875,0.395-0.875,0.875
	v2.091c0,0.481,0.393,0.875,0.875,0.875h2.193c0.48,0,0.874-0.394,0.874-0.875V10.3c0-0.481-0.394-0.875-0.874-0.875H76.276z
	 M79.352,15.478h-1.708c0.162,0.529,0.25,1.087,0.25,1.667c0,3.228-2.703,5.845-6.035,5.845c-3.331,0-6.033-2.618-6.033-5.845
	c0-0.58,0.088-1.138,0.249-1.667h-1.782v8.2c0,0.425,0.347,0.77,0.771,0.77h13.518c0.424,0,0.771-0.345,0.771-0.77V15.478z
	 M71.858,13.155c-2.152,0-3.897,1.69-3.897,3.778c0,2.085,1.745,3.777,3.897,3.777c2.153,0,3.898-1.692,3.898-3.777
	C75.757,14.846,74.012,13.155,71.858,13.155z"/>
<path fill-rule="evenodd" clip-rule="evenodd" fill="#FFFFFF" d="M-38.622,12.712v-1.538c0-0.744,0.498-0.916,0.85-0.916
	s2.151,0,2.151,0V6.979l-2.961-0.017c-3.279,0-4.031,2.445-4.031,4.016v1.734h-1.897v2.306v1.521h1.914c0,4.334,0,9.569,0,9.569
	h3.827c0,0,0-5.284,0-9.569h2.846l0.139-1.505l0.213-2.323H-38.622z"/>
<path fill-rule="evenodd" clip-rule="evenodd" fill="#FFFFFF" d="M18.849,16.793l-4.677,2.523v-3.893v-1.176l2.108,1.147
	L18.849,16.793z M24.449,13.367c0,0-0.171-1.251-0.688-1.798c-0.658-0.718-1.398-0.718-1.738-0.762
	c-2.427-0.185-6.06-0.185-6.06-0.185h-0.008c0,0-3.633,0-6.06,0.185c-0.341,0.044-1.073,0.044-1.738,0.762
	c-0.519,0.547-0.682,1.798-0.682,1.798s-0.178,1.458-0.178,2.923v0.17v1.199c0,1.458,0.178,2.923,0.178,2.923
	s0.163,1.244,0.682,1.791c0.665,0.718,1.531,0.696,1.916,0.77c1.383,0.141,5.89,0.185,5.89,0.185s3.633-0.007,6.06-0.185
	c0.34-0.044,1.08-0.052,1.738-0.77c0.518-0.547,0.688-1.791,0.688-1.791s0.17-1.465,0.17-2.923v-1.117V16.29
	C24.619,14.825,24.449,13.367,24.449,13.367L24.449,13.367z"/>
</svg>
