<?xml version="1.0" encoding="utf-8"?>
<!-- Generator: Adobe Illustrator 16.0.0, SVG Export Plug-In . SVG Version: 6.00 Build 0)  -->
<!DOCTYPE svg PUBLIC "-//W3C//DTD SVG 1.1//EN" "http://www.w3.org/Graphics/SVG/1.1/DTD/svg11.dtd">
<svg version="1.1" id="Layer_8" xmlns="http://www.w3.org/2000/svg" xmlns:xlink="http://www.w3.org/1999/xlink" x="0px" y="0px"
	 width="325.305px" height="207.37px" viewBox="0 0 325.305 207.37" enable-background="new 0 0 325.305 207.37"
	 xml:space="preserve">
<g>
	<g>
		<g>
			<g>
				<g>
					<polygon fill="#FFFFFF" points="225.471,114.484 185.544,114.484 185.544,108.484 219.471,108.484 219.471,57.043 
						151.617,57.043 151.617,62.177 145.617,62.177 145.617,51.043 225.471,51.043 					"/>
				</g>
			</g>
			<g>
				<rect x="185.656" y="71.493" fill="#FFFFFF" width="24.618" height="6"/>
			</g>
			<g>
				<rect x="185.544" y="87.985" fill="#FFFFFF" width="24.73" height="6"/>
			</g>
		</g>
		<g>
			<g>
				<g>
					<rect x="111.69" y="92.072" fill="#FFFFFF" width="49.236" height="6"/>
				</g>
				<g>
					<rect x="111.69" y="108.564" fill="#FFFFFF" width="34.467" height="6"/>
				</g>
			</g>
		</g>
	</g>
	<g>
		<polygon fill="#FFFFFF" points="96.382,157.411 96.382,71.558 176.235,71.558 176.235,134.999 123.999,134.999 123.999,128.999 
			170.235,128.999 170.235,77.558 102.382,77.558 102.382,139.411 109.291,130.199 114.091,133.799 		"/>
	</g>
</g>
</svg>
