<?xml version="1.0" encoding="utf-8"?>
<!-- Generator: Adobe Illustrator 16.0.0, SVG Export Plug-In . SVG Version: 6.00 Build 0)  -->
<!DOCTYPE svg PUBLIC "-//W3C//DTD SVG 1.1//EN" "http://www.w3.org/Graphics/SVG/1.1/DTD/svg11.dtd">
<svg version="1.1" id="Layer_8" xmlns="http://www.w3.org/2000/svg" xmlns:xlink="http://www.w3.org/1999/xlink" x="0px" y="0px"
	 width="325.305px" height="207.37px" viewBox="0 0 325.305 207.37" enable-background="new 0 0 325.305 207.37"
	 xml:space="preserve">
<g>
	<path fill="none" d="M123.155,131.574h87.147V63.057h-87.147V131.574z M182.357,69.371h18.42v6.156h-18.42V69.371z
		 M182.357,119.102h18.42v6.158h-18.42V119.102z M157.518,69.371h18.42v6.156h-18.42V69.371z M157.518,119.102h18.42v6.158h-18.42
		V119.102z M132.679,69.371h18.42v6.156h-18.42V69.371z M132.679,119.102h18.42v6.158h-18.42V119.102z"/>
	<path fill="#FFFFFF" d="M117.155,57.057v80.518h99.147V57.057H117.155z M210.302,131.574h-87.147V63.057h87.147V131.574z"/>
	<rect x="132.679" y="119.102" fill="#FFFFFF" width="18.42" height="6.158"/>
	<rect x="157.518" y="119.102" fill="#FFFFFF" width="18.42" height="6.158"/>
	<rect x="182.357" y="119.102" fill="#FFFFFF" width="18.42" height="6.158"/>
	<rect x="132.679" y="69.371" fill="#FFFFFF" width="18.42" height="6.156"/>
	<rect x="157.518" y="69.371" fill="#FFFFFF" width="18.42" height="6.156"/>
	<rect x="182.357" y="69.371" fill="#FFFFFF" width="18.42" height="6.156"/>
</g>
</svg>
