<?xml version="1.0" encoding="utf-8"?>
<!-- Generator: Adobe Illustrator 16.0.0, SVG Export Plug-In . SVG Version: 6.00 Build 0)  -->
<!DOCTYPE svg PUBLIC "-//W3C//DTD SVG 1.1//EN" "http://www.w3.org/Graphics/SVG/1.1/DTD/svg11.dtd">
<svg version="1.1" id="Layer_2_1_" xmlns="http://www.w3.org/2000/svg" xmlns:xlink="http://www.w3.org/1999/xlink" x="0px" y="0px"
	 width="325.305px" height="207.371px" viewBox="0 0 325.305 207.371" enable-background="new 0 0 325.305 207.371"
	 xml:space="preserve">
<g id="Layer_2_2_">
	<g>
		<g>
			<g>
				<polygon fill="#FFFFFF" points="97.876,164.266 97.876,87.304 141.487,87.304 141.487,93.304 103.876,93.304 103.876,149.781 
					114.14,139.52 173.298,139.52 173.298,113.512 179.298,113.512 179.298,145.52 116.624,145.52 				"/>
			</g>
			<g>
				<path fill="#FFFFFF" d="M219.909,123.654l-18.746-18.746h-62.676V46.693h81.422V123.654z M144.487,98.908h59.16l10.264,10.261
					V52.693h-69.422L144.487,98.908L144.487,98.908z"/>
			</g>
			<g>
				<path fill="#FFFFFF" d="M204.581,81.831h-1.644v-6h1.644V81.831z M201.938,81.831h-5v-6h5V81.831z M195.938,81.831h-5v-6h5
					V81.831z M189.938,81.831h-5v-6h5V81.831z M183.938,81.831h-5v-6h5V81.831z M177.938,81.831h-5v-6h5V81.831z M171.938,81.831h-5
					v-6h5V81.831z M165.938,81.831h-5v-6h5V81.831z M159.938,81.831h-5v-6h5V81.831z"/>
			</g>
		</g>
	</g>
</g>
</svg>
