<?xml version="1.0" encoding="utf-8"?>
<!-- Generator: Adobe Illustrator 16.0.0, SVG Export Plug-In . SVG Version: 6.00 Build 0)  -->
<!DOCTYPE svg PUBLIC "-//W3C//DTD SVG 1.1//EN" "http://www.w3.org/Graphics/SVG/1.1/DTD/svg11.dtd">
<svg version="1.1" id="Layer_8" xmlns="http://www.w3.org/2000/svg" xmlns:xlink="http://www.w3.org/1999/xlink" x="0px" y="0px"
	 width="325.305px" height="207.37px" viewBox="0 0 325.305 207.37" enable-background="new 0 0 325.305 207.37"
	 xml:space="preserve">
<g>
	<g>
		<g>
			<path fill="#FFFFFF" d="M103.896,102.749c-15.578,0-28.251-12.674-28.251-28.252s12.673-28.25,28.251-28.25
				c15.576,0,28.248,12.672,28.248,28.25S119.472,102.749,103.896,102.749z M103.896,52.247c-12.27,0-22.251,9.98-22.251,22.25
				s9.981,22.252,22.251,22.252c12.268,0,22.248-9.982,22.248-22.252S116.163,52.247,103.896,52.247z"/>
		</g>
	</g>
	<g>
		<polygon fill="#FFFFFF" points="145.823,146.938 63.367,146.938 67.092,113.411 84.543,106.433 86.771,112.003 72.658,117.648 
			70.07,140.938 139.12,140.938 136.532,117.648 122.42,112.003 124.648,106.433 142.099,113.411 		"/>
	</g>
</g>
<g>
	<g>
		<g>
			<path fill="#FFFFFF" d="M220.01,102.749c-15.578,0-28.251-12.674-28.251-28.252s12.673-28.25,28.251-28.25
				c15.576,0,28.248,12.672,28.248,28.25S235.586,102.749,220.01,102.749z M220.01,52.247c-12.27,0-22.251,9.98-22.251,22.25
				s9.981,22.252,22.251,22.252c12.268,0,22.248-9.982,22.248-22.252S232.277,52.247,220.01,52.247z"/>
		</g>
	</g>
	<g>
		<polygon fill="#FFFFFF" points="261.938,146.938 179.481,146.938 183.206,113.411 200.657,106.433 202.886,112.003 
			188.772,117.648 186.185,140.938 255.234,140.938 252.646,117.648 238.534,112.003 240.763,106.433 258.213,113.411 		"/>
	</g>
</g>
</svg>
