<?xml version="1.0" encoding="utf-8"?>
<!-- Generator: Adobe Illustrator 16.0.0, SVG Export Plug-In . SVG Version: 6.00 Build 0)  -->
<!DOCTYPE svg PUBLIC "-//W3C//DTD SVG 1.1//EN" "http://www.w3.org/Graphics/SVG/1.1/DTD/svg11.dtd">
<svg version="1.1" id="Layer_8" xmlns="http://www.w3.org/2000/svg" xmlns:xlink="http://www.w3.org/1999/xlink" x="0px" y="0px"
	 width="325.305px" height="207.37px" viewBox="0 0 325.305 207.37" enable-background="new 0 0 325.305 207.37"
	 xml:space="preserve">
<g>
	<g>
		<rect x="140.959" y="43.365" fill="#FFFFFF" width="5" height="16.451"/>
	</g>
	<g>
		<rect x="179.346" y="43.365" fill="#FFFFFF" width="5" height="16.451"/>
	</g>
	<g>
		<polygon fill="#FFFFFF" points="217.247,155.539 108.058,155.539 108.058,81.75 113.058,81.75 113.058,150.539 212.247,150.539 
			212.247,54.09 181.846,54.09 181.846,49.09 217.247,49.09 		"/>
	</g>
	<g>
		<rect x="143.459" y="49.09" fill="#FFFFFF" width="30.161" height="5"/>
	</g>
	<g>
		<polygon fill="#FFFFFF" points="214.747,76.025 108.058,76.025 108.058,49.09 135.233,49.09 135.233,54.09 113.058,54.09 
			113.058,71.025 214.747,71.025 		"/>
	</g>
	<g>
		
			<rect x="133.272" y="87.234" transform="matrix(0.7071 0.7071 -0.7071 0.7071 106.2976 -68.4473)" fill="#FFFFFF" width="4.999" height="13.71"/>
	</g>
	<g>
		
			<rect x="157.949" y="87.234" transform="matrix(0.7071 0.7071 -0.7071 0.7071 113.5252 -85.8964)" fill="#FFFFFF" width="4.999" height="13.71"/>
	</g>
	<g>
		
			<rect x="182.626" y="87.234" transform="matrix(0.7071 0.7071 -0.7071 0.7071 120.7529 -103.3455)" fill="#FFFFFF" width="4.999" height="13.71"/>
	</g>
	<g>
		
			<rect x="133.272" y="120.136" transform="matrix(0.7071 0.7071 -0.7071 0.7071 129.563 -58.8104)" fill="#FFFFFF" width="4.999" height="13.71"/>
	</g>
	<g>
		
			<rect x="157.949" y="120.136" transform="matrix(0.7071 0.7071 -0.7071 0.7071 136.7907 -76.2595)" fill="#FFFFFF" width="4.999" height="13.71"/>
	</g>
	<g>
		
			<rect x="182.626" y="120.136" transform="matrix(0.7071 0.7071 -0.7071 0.7071 144.0183 -93.7086)" fill="#FFFFFF" width="4.999" height="13.71"/>
	</g>
</g>
</svg>
