<?xml version="1.0" encoding="utf-8"?>
<!-- Generator: Adobe Illustrator 16.0.0, SVG Export Plug-In . SVG Version: 6.00 Build 0)  -->
<!DOCTYPE svg PUBLIC "-//W3C//DTD SVG 1.1//EN" "http://www.w3.org/Graphics/SVG/1.1/DTD/svg11.dtd">
<svg version="1.1" id="Layer_8" xmlns="http://www.w3.org/2000/svg" xmlns:xlink="http://www.w3.org/1999/xlink" x="0px" y="0px"
	 width="325.305px" height="207.37px" viewBox="0 0 325.305 207.37" enable-background="new 0 0 325.305 207.37"
	 xml:space="preserve">
<g>
	<path fill="#FFFFFF" d="M159.854,139.65c-3.003-4.01-7.776-6.621-13.16-6.621h-36.188v6.579h36.188c5.441,0,9.87,4.429,9.87,9.87
		h6.58c0-5.441,4.428-9.87,9.87-9.87h36.188v-6.579h-36.188C167.629,133.029,162.856,135.64,159.854,139.65z"/>
	<path fill="#FFFFFF" d="M173.013,44.203c-5.384,0-10.157,2.611-13.159,6.621c-3.003-4.01-7.776-6.621-13.16-6.621h-36.188v82.246
		h39.573v-6.58h-32.994V50.783h29.609c5.441,0,9.87,4.428,9.87,9.869v65.797h6.58V60.652c0-5.441,4.428-9.869,9.87-9.869h29.608
		v69.086h-32.987v6.58h39.567V44.203H173.013z"/>
</g>
</svg>
