<?xml version="1.0" encoding="utf-8"?>
<!-- Generator: Adobe Illustrator 16.0.0, SVG Export Plug-In . SVG Version: 6.00 Build 0)  -->
<!DOCTYPE svg PUBLIC "-//W3C//DTD SVG 1.1//EN" "http://www.w3.org/Graphics/SVG/1.1/DTD/svg11.dtd">
<svg version="1.1" id="Layer_8" xmlns="http://www.w3.org/2000/svg" xmlns:xlink="http://www.w3.org/1999/xlink" x="0px" y="0px"
	 width="325.305px" height="207.37px" viewBox="0 0 325.305 207.37" enable-background="new 0 0 325.305 207.37"
	 xml:space="preserve">
<g>
	<path fill="none" d="M191.692,95.176c-1.895-2.59-1.895-6.068,0-8.657l12.862-17.571c0.445-0.607,0.24-1.168,0.078-1.448
		c-0.162-0.28-0.549-0.742-1.293-0.656l-21.647,2.354c-3.19,0.346-6.203-1.393-7.498-4.329l-8.785-19.924
		c-0.304-0.688-0.892-0.792-1.215-0.792h0c-0.323,0-0.911,0.104-1.215,0.793l-8.785,19.923c-1.294,2.937-4.305,4.683-7.498,4.329
		l-21.647-2.354c-0.749-0.085-1.132,0.376-1.294,0.656c-0.162,0.28-0.366,0.841,0.079,1.449l12.862,17.569
		c1.896,2.59,1.896,6.068,0,8.658l-12.862,17.57c-0.445,0.607-0.24,1.168-0.079,1.448c0.162,0.28,0.548,0.747,1.294,0.656
		l21.647-2.354c0.27-0.029,0.539-0.044,0.806-0.044c2.883,0,5.508,1.686,6.692,4.373l8.785,19.924
		c0.304,0.689,0.892,0.793,1.216,0.792c0.323,0,0.911-0.103,1.215-0.792l8.785-19.924c1.294-2.937,4.309-4.68,7.498-4.329
		l21.646,2.354c0.749,0.082,1.132-0.376,1.294-0.656c0.162-0.28,0.367-0.841-0.078-1.449L191.692,95.176z M164.046,100.061
		c-5.885,0-10.673-4.788-10.673-10.673c0-5.886,4.788-10.674,10.673-10.674s10.673,4.788,10.673,10.674
		C174.719,95.272,169.932,100.061,164.046,100.061z"/>
	<path fill="none" d="M164.046,84.714c-2.577,0-4.673,2.097-4.673,4.674c0,2.576,2.096,4.673,4.673,4.673
		c2.577,0,4.673-2.097,4.673-4.673C168.719,86.811,166.623,84.714,164.046,84.714z"/>
	<path fill="#FFFFFF" d="M196.534,91.632c-0.344-0.47-0.344-1.101,0-1.569l12.862-17.57c1.741-2.379,1.907-5.441,0.433-7.994
		c-1.474-2.552-4.209-3.941-7.139-3.62l-21.647,2.354c-0.579,0.065-1.124-0.252-1.359-0.784l-8.785-19.924
		c-1.189-2.696-3.759-4.372-6.706-4.372h0c-2.946,0-5.516,1.676-6.705,4.372l-8.785,19.924c-0.235,0.532-0.78,0.832-1.359,0.784
		l-21.646-2.354c-2.932-0.32-5.665,1.068-7.139,3.62c-1.474,2.553-1.308,5.615,0.433,7.994l12.862,17.57
		c0.344,0.469,0.344,1.1,0,1.568l-12.862,17.57c-1.741,2.379-1.907,5.441-0.433,7.994c1.474,2.551,4.209,3.937,7.139,3.62
		l21.647-2.354c0.579-0.057,1.125,0.252,1.359,0.784l8.785,19.924c1.188,2.697,3.758,4.373,6.706,4.372
		c2.947,0,5.516-1.675,6.705-4.372l8.786-19.924c0.234-0.531,0.778-0.844,1.358-0.784l21.647,2.354
		c2.932,0.317,5.666-1.069,7.139-3.62c1.474-2.553,1.308-5.615-0.433-7.994L196.534,91.632z M204.632,114.194
		c-0.162,0.28-0.545,0.738-1.294,0.656l-21.646-2.354c-3.189-0.351-6.204,1.393-7.498,4.329l-8.785,19.924
		c-0.304,0.689-0.892,0.792-1.215,0.792c-0.324,0.001-0.912-0.103-1.216-0.792l-8.785-19.924c-1.185-2.688-3.81-4.373-6.692-4.373
		c-0.267,0-0.536,0.015-0.806,0.044l-21.647,2.354c-0.746,0.091-1.132-0.376-1.294-0.656c-0.162-0.28-0.366-0.841,0.079-1.448
		l12.862-17.57c1.896-2.59,1.896-6.068,0-8.658l-12.862-17.569c-0.445-0.608-0.24-1.169-0.079-1.449
		c0.162-0.28,0.546-0.741,1.294-0.656l21.647,2.354c3.193,0.354,6.204-1.393,7.498-4.329l8.785-19.923
		c0.304-0.689,0.892-0.793,1.215-0.793h0c0.323,0,0.912,0.104,1.215,0.792l8.785,19.924c1.294,2.937,4.308,4.675,7.498,4.329
		l21.647-2.354c0.745-0.086,1.132,0.376,1.293,0.656c0.162,0.28,0.367,0.841-0.078,1.448l-12.862,17.571
		c-1.895,2.589-1.895,6.067,0,8.657l12.862,17.569C205,113.354,204.794,113.914,204.632,114.194z"/>
	<path fill="#FFFFFF" d="M164.046,78.714c-5.885,0-10.673,4.788-10.673,10.674c0,5.885,4.788,10.673,10.673,10.673
		s10.673-4.788,10.673-10.673C174.719,83.502,169.932,78.714,164.046,78.714z M164.046,94.061c-2.577,0-4.673-2.097-4.673-4.673
		c0-2.577,2.096-4.674,4.673-4.674c2.577,0,4.673,2.097,4.673,4.674C168.719,91.964,166.623,94.061,164.046,94.061z"/>
	<path fill="#FFFFFF" d="M105.625,147.807c0.145,0.01,0.25,0.039,0.321,0.057l-1.455,5.82c0.177,0.044,0.531,0.072,1.041,0.072
		c5.626,0,30.081-3.35,40.736-24.66l-5.367-2.684C131.569,145.077,108.749,148.01,105.625,147.807z"/>
</g>
</svg>
