<?xml version="1.0" encoding="utf-8"?>
<!-- Generator: Adobe Illustrator 16.0.0, SVG Export Plug-In . SVG Version: 6.00 Build 0)  -->
<!DOCTYPE svg PUBLIC "-//W3C//DTD SVG 1.1//EN" "http://www.w3.org/Graphics/SVG/1.1/DTD/svg11.dtd">
<svg version="1.1" id="Layer_8" xmlns="http://www.w3.org/2000/svg" xmlns:xlink="http://www.w3.org/1999/xlink" x="0px" y="0px"
	 width="325.305px" height="207.37px" viewBox="0 0 325.305 207.37" enable-background="new 0 0 325.305 207.37"
	 xml:space="preserve">
<g>
	<g>
		<path fill="#FFFFFF" d="M140.181,105.48c-13.278-13.555-13.279-35.609,0-49.165c6.455-6.586,15.038-10.214,24.169-10.214
			c0.001,0,0.001,0,0.002,0c9.13,0.001,17.712,3.628,24.165,10.214c13.275,13.556,13.275,35.61,0,49.165l-4.286-4.199
			c11.008-11.238,11.008-29.527-0.001-40.768c-5.313-5.424-12.373-8.411-19.878-8.412h-0.002c-7.506,0-14.567,2.988-19.884,8.413
			c-11.01,11.239-11.01,29.527,0.001,40.767L140.181,105.48z"/>
	</g>
	<g>
		<polygon fill="#FFFFFF" points="164.349,145.089 146.232,116.101 151.32,112.921 164.349,133.769 177.378,112.921 
			182.466,116.101 		"/>
	</g>
	<g>
		<g>
			<path fill="#FFFFFF" d="M164.349,98.824c-10.241,0-18.573-8.332-18.573-18.574c0-10.241,8.332-18.573,18.573-18.573
				s18.573,8.332,18.573,18.573C182.922,90.492,174.59,98.824,164.349,98.824z M164.349,67.676c-6.933,0-12.573,5.641-12.573,12.573
				c0,6.934,5.64,12.574,12.573,12.574s12.573-5.641,12.573-12.574C176.922,73.317,171.282,67.676,164.349,67.676z"/>
		</g>
	</g>
</g>
</svg>
