<?xml version="1.0" encoding="utf-8"?>
<!-- Generator: Adobe Illustrator 16.0.0, SVG Export Plug-In . SVG Version: 6.00 Build 0)  -->
<!DOCTYPE svg PUBLIC "-//W3C//DTD SVG 1.1//EN" "http://www.w3.org/Graphics/SVG/1.1/DTD/svg11.dtd">
<svg version="1.1" id="Layer_8" xmlns="http://www.w3.org/2000/svg" xmlns:xlink="http://www.w3.org/1999/xlink" x="0px" y="0px"
	 width="325.305px" height="207.37px" viewBox="0 0 325.305 207.37" enable-background="new 0 0 325.305 207.37"
	 xml:space="preserve">
<g>
	<polygon fill="none" points="186.844,57.337 113.783,86.563 147.914,96.031 	"/>
	<polygon fill="none" points="138.294,98.551 140.113,107.648 148.984,109.422 146.608,100.858 	"/>
	<polygon fill="none" points="151.441,99.575 160.902,133.682 189.795,61.455 	"/>
	<path fill="#FFFFFF" d="M198.572,48.893c-0.707-0.708-1.766-0.925-2.696-0.554L105.05,84.671c-0.995,0.398-1.626,1.388-1.567,2.459
		c0.059,1.07,0.795,1.984,1.828,2.271l27.584,7.651l2.643,13.21c0.198,0.989,0.972,1.764,1.961,1.961l12.984,2.597l7.582,27.334
		c0.286,1.034,1.2,1.77,2.271,1.828c0.047,0.003,0.093,0.004,0.139,0.004c1.017,0,1.938-0.619,2.32-1.571l36.331-90.826
		C199.497,50.661,199.28,49.6,198.572,48.893z M186.844,57.337l-38.93,38.693l-34.131-9.468L186.844,57.337z M140.113,107.648
		l-1.819-9.097l8.314,2.307l2.376,8.564L140.113,107.648z M160.902,133.682l-9.461-34.107l38.354-38.12L160.902,133.682z"/>
</g>
</svg>
