<?xml version="1.0" encoding="utf-8"?>
<!-- Generator: Adobe Illustrator 16.0.0, SVG Export Plug-In . SVG Version: 6.00 Build 0)  -->
<!DOCTYPE svg PUBLIC "-//W3C//DTD SVG 1.1//EN" "http://www.w3.org/Graphics/SVG/1.1/DTD/svg11.dtd">
<svg version="1.1" id="Layer_8" xmlns="http://www.w3.org/2000/svg" xmlns:xlink="http://www.w3.org/1999/xlink" x="0px" y="0px"
	 width="325.305px" height="207.37px" viewBox="0 0 325.305 207.37" enable-background="new 0 0 325.305 207.37"
	 xml:space="preserve">
<g>
	<path fill="none" d="M133.252,101.433c-9.006,0-16.333,7.327-16.333,16.333c0,9.007,7.327,16.334,16.333,16.334
		c9.006,0,16.333-7.327,16.333-16.334C149.585,108.76,142.258,101.433,133.252,101.433z M133.252,114.5
		c-1.803,0-3.267,1.463-3.267,3.266h-6.533c0-5.402,4.396-9.8,9.8-9.8V114.5z"/>
	<path fill="none" d="M192.052,101.433c-9.006,0-16.333,7.327-16.333,16.333c0,9.007,7.327,16.334,16.333,16.334
		c9.006,0,16.333-7.327,16.333-16.334C208.385,108.76,201.058,101.433,192.052,101.433z M192.052,114.5
		c-1.803,0-3.267,1.463-3.267,3.266h-6.533c0-5.402,4.397-9.8,9.8-9.8V114.5z"/>
	<path fill="#FFFFFF" d="M123.452,117.766h6.533c0-1.803,1.464-3.266,3.267-3.266v-6.534
		C127.849,107.966,123.452,112.363,123.452,117.766z"/>
	<path fill="#FFFFFF" d="M182.252,117.766h6.533c0-1.803,1.464-3.266,3.267-3.266v-6.534
		C186.649,107.966,182.252,112.363,182.252,117.766z"/>
	<path fill="#FFFFFF" d="M192.052,94.899c-11.497,0-21.038,8.536-22.629,19.601h-13.541c-1.591-11.064-11.133-19.601-22.63-19.601
		c-12.606,0-22.867,10.261-22.867,22.866c0,12.606,10.261,22.867,22.867,22.867c11.497,0,21.039-8.535,22.63-19.6h13.541
		c1.591,11.064,11.132,19.6,22.629,19.6c12.606,0,22.867-10.261,22.867-22.867C214.919,105.16,204.658,94.899,192.052,94.899z
		 M133.252,134.1c-9.006,0-16.333-7.327-16.333-16.334c0-9.006,7.327-16.333,16.333-16.333c9.006,0,16.333,7.327,16.333,16.333
		C149.585,126.772,142.258,134.1,133.252,134.1z M192.052,134.1c-9.006,0-16.333-7.327-16.333-16.334
		c0-9.006,7.327-16.333,16.333-16.333c9.006,0,16.333,7.327,16.333,16.333C208.385,126.772,201.058,134.1,192.052,134.1z"/>
	<path fill="#FFFFFF" d="M123.387,62.873l0.065-0.641c0-3.603,2.93-6.533,6.533-6.533v-6.533c-7.089,0-12.877,5.674-13.063,12.724
		l-6.471,32.37l6.403,1.279L123.387,62.873z"/>
	<path fill="#FFFFFF" d="M201.853,62.232l6.598,33.307l6.403-1.279l-6.472-32.37c-0.186-7.05-5.975-12.724-13.063-12.724v6.533
		C198.922,55.699,201.853,58.63,201.853,62.232z"/>
</g>
</svg>
