<?xml version="1.0" encoding="utf-8"?>
<!-- Generator: Adobe Illustrator 16.0.0, SVG Export Plug-In . SVG Version: 6.00 Build 0)  -->
<!DOCTYPE svg PUBLIC "-//W3C//DTD SVG 1.1//EN" "http://www.w3.org/Graphics/SVG/1.1/DTD/svg11.dtd">
<svg version="1.1" id="Layer_8" xmlns="http://www.w3.org/2000/svg" xmlns:xlink="http://www.w3.org/1999/xlink" x="0px" y="0px"
	 width="325.305px" height="207.37px" viewBox="0 0 325.305 207.37" enable-background="new 0 0 325.305 207.37"
	 xml:space="preserve">
<g>
	<g>
		<polygon fill="#FFFFFF" points="218.031,149.208 107.274,149.208 107.274,55.91 162.653,55.91 162.653,61.91 113.274,61.91 
			113.274,143.208 212.031,143.208 212.031,93.829 218.031,93.829 		"/>
	</g>
	<g>
		<g>
			<g>
				<polygon fill="#FFFFFF" points="166.7,115.824 160.348,103.121 147.636,96.769 187.621,56.789 191.863,61.031 157.767,95.124 
					164.821,98.648 168.344,105.695 202.434,71.603 206.676,75.845 				"/>
			</g>
			<g>
				<path fill="#FFFFFF" d="M211.962,70.559l-19.055-19.054l2.118-2.121c2.542-2.547,5.926-3.95,9.526-3.95s6.985,1.402,9.531,3.948
					c2.543,2.536,3.945,5.917,3.947,9.516c0.003,3.604-1.399,6.992-3.947,9.54L211.962,70.559z M201.832,51.943l9.689,9.689
					c0.336-0.858,0.511-1.781,0.51-2.731c-0.001-1.995-0.777-3.868-2.188-5.274c-1.415-1.415-3.293-2.193-5.291-2.193
					C203.606,51.434,202.687,51.608,201.832,51.943z"/>
			</g>
		</g>
		<g>
			<polygon fill="#FFFFFF" points="132.674,130.791 141.979,102.879 147.67,104.775 142.161,121.305 158.69,115.798 
				160.586,121.489 			"/>
		</g>
	</g>
</g>
</svg>
