<?xml version="1.0" encoding="utf-8"?>
<!-- Generator: Adobe Illustrator 16.0.0, SVG Export Plug-In . SVG Version: 6.00 Build 0)  -->
<!DOCTYPE svg PUBLIC "-//W3C//DTD SVG 1.1//EN" "http://www.w3.org/Graphics/SVG/1.1/DTD/svg11.dtd">
<svg version="1.1" id="Layer_8" xmlns="http://www.w3.org/2000/svg" xmlns:xlink="http://www.w3.org/1999/xlink" x="0px" y="0px"
	 width="325.305px" height="207.37px" viewBox="0 0 325.305 207.37" enable-background="new 0 0 325.305 207.37"
	 xml:space="preserve">
<g>
	<g>
		<g>
			<g>
				<path fill="#FFFFFF" d="M149.682,99.892c-14.167,0-25.693-11.523-25.693-25.688c0-14.168,11.526-25.693,25.693-25.693
					c14.164,0,25.687,11.525,25.687,25.693C175.369,88.368,163.846,99.892,149.682,99.892z M149.682,54.511
					c-10.859,0-19.693,8.834-19.693,19.693c0,10.854,8.834,19.688,19.693,19.688c10.855,0,19.687-8.833,19.687-19.688
					C169.369,63.345,160.538,54.511,149.682,54.511z"/>
			</g>
			<g>
				<path fill="#FFFFFF" d="M180.878,99.89v-6c7.729,0,14.018-6.287,14.018-14.014c0-7.73-6.288-14.02-14.018-14.02v-6
					c11.038,0,20.018,8.98,20.018,20.02C200.896,90.911,191.916,99.89,180.878,99.89z"/>
			</g>
		</g>
		<g>
			<g>
				<g>
					<polygon fill="#FFFFFF" points="207.027,133.927 189.387,133.927 189.387,127.927 200.109,127.927 198.045,113.481 
						188.642,111.071 190.132,105.259 203.418,108.665 					"/>
				</g>
			</g>
		</g>
	</g>
	<g>
		<polygon fill="#FFFFFF" points="184.254,139.599 115.104,139.599 118.64,109.751 132.114,105.382 133.965,111.089 
			124.146,114.272 121.857,133.599 177.501,133.599 175.212,114.272 165.393,111.089 167.244,105.382 180.718,109.751 		"/>
	</g>
</g>
</svg>
