<?xml version="1.0" encoding="utf-8"?>
<!-- Generator: Adobe Illustrator 16.0.0, SVG Export Plug-In . SVG Version: 6.00 Build 0)  -->
<!DOCTYPE svg PUBLIC "-//W3C//DTD SVG 1.1//EN" "http://www.w3.org/Graphics/SVG/1.1/DTD/svg11.dtd">
<svg version="1.1" id="Layer_8" xmlns="http://www.w3.org/2000/svg" xmlns:xlink="http://www.w3.org/1999/xlink" x="0px" y="0px"
	 width="325.305px" height="207.37px" viewBox="0 0 325.305 207.37" enable-background="new 0 0 325.305 207.37"
	 xml:space="preserve">
<g>
	<path fill="none" d="M188.595,65.376h1.044h3.956h1.044c0,1.921,2.817,3.994,7.368,3.994c4.496,0,7.63-2.104,7.63-3.994
		c0-2.171-3.773-6.592-8.151-6.592h-76.629c-3.538,0-6.73-0.897-9.189-2.397v65.646c0,5.337,4.342,9.68,9.68,9.68h63.248V65.376z
		 M136.031,75.612l-3.535,3.535l-3.743-3.742l-3.742,3.742l-3.536-3.535l3.743-3.743l-3.743-3.742l3.536-3.535l3.742,3.742
		l3.743-3.742l3.535,3.535l-3.743,3.742L136.031,75.612z M142.223,74.323l-0.965-4.906c15.421-3.035,26.128-1.159,31.825,5.568
		c8.268,9.764,2.422,25.666,2.169,26.338l-2.34-0.88l-2.341-0.877l0.001-0.003l0,0l0,0c0.068-0.185,5.051-13.86-1.314-21.358
		C164.817,72.973,155.721,71.669,142.223,74.323z M176.655,123.307l-3.743-3.743l-3.743,3.743l-3.535-3.535l3.743-3.743
		l-3.743-3.742l3.535-3.535l3.743,3.742l3.743-3.742l3.535,3.535l-3.743,3.742l3.743,3.743L176.655,123.307z"/>
	<path fill="none" d="M124.857,53.784c0.375,0,0.745-0.014,1.109-0.041l0.003,0.041h8.076v-5.293c0-2.504-3.773-5.293-9.188-5.293
		c-5.416,0-9.189,2.789-9.189,5.293S119.441,53.784,124.857,53.784z"/>
	<path fill="none" d="M202.007,74.37c-3.314,0-6.236-0.862-8.412-2.301v59.643v2.095v0.405c0,2.869,3.613,5.293,7.891,5.293
		c4.277,0,7.891-2.424,7.891-5.293V72.767C207.328,73.78,204.804,74.37,202.007,74.37z"/>
	<path fill="#FFFFFF" d="M214.637,65.376c0-5.109-6.192-11.592-13.151-11.592h-62.44v-5.293c0-5.771-6.232-10.293-14.188-10.293
		c-7.957,0-14.189,4.521-14.189,10.293v73.541c0,8.095,6.585,14.68,14.68,14.68h63.633c1.402,4.472,6.478,7.793,12.506,7.793
		c6.483,0,11.849-3.846,12.744-8.828h0.146V67.273C214.545,66.665,214.637,66.031,214.637,65.376z M124.857,53.784
		c-5.416,0-9.189-2.789-9.189-5.293s3.773-5.293,9.189-5.293c5.415,0,9.188,2.789,9.188,5.293v5.293h-8.076 M115.667,122.032V56.387
		c2.459,1.5,5.652,2.397,9.189,2.397h76.629c4.378,0,8.151,4.421,8.151,6.592c0,1.89-3.134,3.994-7.63,3.994
		c-4.551,0-7.368-2.073-7.368-3.994h-1.044h-3.956h-1.044v66.336h-63.248C120.009,131.712,115.667,127.369,115.667,122.032z
		 M201.486,139.505c-4.277,0-7.891-2.424-7.891-5.293v-0.405v-2.095V72.069c2.176,1.438,5.098,2.301,8.412,2.301
		c2.797,0,5.321-0.59,7.369-1.604v61.445C209.376,137.081,205.763,139.505,201.486,139.505z"/>
	<polygon fill="#FFFFFF" points="132.496,64.592 128.752,68.334 125.01,64.592 121.475,68.127 125.218,71.869 121.475,75.612 
		125.01,79.147 128.752,75.405 132.496,79.147 136.031,75.612 132.288,71.869 136.031,68.127 	"/>
	<polygon fill="#FFFFFF" points="180.19,112.286 176.655,108.751 172.912,112.493 169.169,108.751 165.634,112.286 169.377,116.028 
		165.634,119.771 169.169,123.307 172.912,119.563 176.655,123.307 180.19,119.771 176.447,116.028 	"/>
	
		<line fill="none" stroke="#FFFFFF" stroke-width="0" stroke-linecap="round" stroke-linejoin="round" x1="170.573" y1="99.563" x2="170.573" y2="99.563"/>
	<path fill="#FFFFFF" d="M169.258,78.205c6.365,7.498,1.382,21.174,1.314,21.358l-0.001,0.003l2.341,0.877l2.34,0.88
		c0.253-0.672,6.099-16.574-2.169-26.338c-5.697-6.728-16.404-8.604-31.825-5.568l0.965,4.906
		C155.721,71.669,164.817,72.973,169.258,78.205z"/>
</g>
</svg>
