<?xml version="1.0" encoding="utf-8"?>
<!-- Generator: Adobe Illustrator 16.0.0, SVG Export Plug-In . SVG Version: 6.00 Build 0)  -->
<!DOCTYPE svg PUBLIC "-//W3C//DTD SVG 1.1//EN" "http://www.w3.org/Graphics/SVG/1.1/DTD/svg11.dtd">
<svg version="1.1" id="Layer_2_1_" xmlns="http://www.w3.org/2000/svg" xmlns:xlink="http://www.w3.org/1999/xlink" x="0px" y="0px"
	 width="325.305px" height="207.371px" viewBox="0 0 325.305 207.371" enable-background="new 0 0 325.305 207.371"
	 xml:space="preserve">
<g>
	<path fill="none" d="M185.084,99.261c0-18.654-15.18-33.833-33.833-33.833c-18.654,0-33.833,15.179-33.833,33.833
		s15.179,33.833,33.833,33.833C169.906,133.093,185.084,117.916,185.084,99.261z"/>
	<path fill="#FFFFFF" d="M205.302,148.691l-23.145-23.145c6.038-7.088,9.694-16.267,9.694-26.286c0-22.388-18.211-40.6-40.6-40.6
		c-22.388,0-40.6,18.212-40.6,40.6c0,22.387,18.211,40.6,40.6,40.6c9.938,0,19.045-3.594,26.109-9.543l23.156,23.158
		L205.302,148.691z M117.419,99.261c0-18.654,15.179-33.833,33.833-33.833c18.654,0,33.833,15.179,33.833,33.833
		s-15.179,33.833-33.833,33.833C132.598,133.093,117.419,117.916,117.419,99.261z"/>
</g>
</svg>
