<?xml version="1.0" encoding="utf-8"?>
<!-- Generator: Adobe Illustrator 16.0.0, SVG Export Plug-In . SVG Version: 6.00 Build 0)  -->
<!DOCTYPE svg PUBLIC "-//W3C//DTD SVG 1.1//EN" "http://www.w3.org/Graphics/SVG/1.1/DTD/svg11.dtd">
<svg version="1.1" id="Layer_2" xmlns="http://www.w3.org/2000/svg" xmlns:xlink="http://www.w3.org/1999/xlink" x="0px" y="0px"
	 width="325.305px" height="207.371px" viewBox="0 0 325.305 207.371" enable-background="new 0 0 325.305 207.371"
	 xml:space="preserve">
<g>
	<path fill="#FFFFFF" d="M193.701,79.189v42.405h7.066V75.655h-3.664C195.152,75.655,193.701,77.237,193.701,79.189z"/>
	<path fill="#FFFFFF" d="M147.63,61.52c-9.74,0-17.539,7.927-17.539,17.669v66.941l28.271-20.195l28.27,20.195V79.189
		c0-5.846,4.625-10.602,10.472-10.602h3.664V61.52H147.63z M179.564,79.189v53.206l-21.202-15.144l-21.203,15.144V79.189
		c0-5.846,4.68-10.609,10.525-10.609l35.389,0.008C180.852,71.542,179.564,75.213,179.564,79.189z"/>
</g>
</svg>
