<?xml version="1.0" encoding="utf-8"?>
<!-- Generator: Adobe Illustrator 16.0.0, SVG Export Plug-In . SVG Version: 6.00 Build 0)  -->
<!DOCTYPE svg PUBLIC "-//W3C//DTD SVG 1.1//EN" "http://www.w3.org/Graphics/SVG/1.1/DTD/svg11.dtd">
<svg version="1.1" id="Layer_8" xmlns="http://www.w3.org/2000/svg" xmlns:xlink="http://www.w3.org/1999/xlink" x="0px" y="0px"
	 width="325.305px" height="207.37px" viewBox="0 0 325.305 207.37" enable-background="new 0 0 325.305 207.37"
	 xml:space="preserve">
<g>
	<path fill="none" d="M126.704,79.088c-1.488-12.416-12.079-22.075-24.889-22.075c-12.811,0-23.401,9.659-24.89,22.075H126.704z"/>
	<path fill="none" d="M224.625,57.013c-7.645,0-14.497,3.443-19.1,8.855c7.697-2.174,19.519-4.235,27.946,0.2
		c5.826,3.066,10.705,4.9,14.12,5.969C243.708,63.202,234.878,57.013,224.625,57.013z"/>
	<path fill="#FFFFFF" d="M101.815,51.013c-17.135,0-31.075,13.94-31.075,31.075c0,7.693,2.258,15.8,6.194,22.242
		c3.954,6.47,9.353,10.852,15.401,12.563v5.388H76.8c-5.707,0-10.755,3.638-12.56,9.053l-3.426,10.276l5.692,1.896l3.425-10.275
		c0.987-2.961,3.747-4.95,6.868-4.95h21.535v-16.369l-2.541-0.394c-10.855-1.681-17.891-14.463-18.919-26.43h49.879
		c-1.028,11.967-8.064,24.749-18.919,26.43l-2.541,0.394l-0.001,16.369h21.535c3.121,0,5.881,1.989,6.868,4.949l3.421,10.263
		l5.692-1.896l-3.421-10.263c-1.806-5.415-6.853-9.053-12.561-9.053h-15.534v-5.388c6.049-1.711,11.448-6.093,15.401-12.563
		c3.428-5.609,5.579-12.48,6.079-19.242h18.287v-6h-18.319C131.228,63.356,117.937,51.013,101.815,51.013z M101.815,57.013
		c12.811,0,23.401,9.659,24.889,22.075H76.925C78.414,66.672,89.004,57.013,101.815,57.013z"/>
	<path fill="#FFFFFF" d="M199.755,85.851c-0.135-1.266-0.206-2.524-0.206-3.763c0-2.946,0.515-5.774,1.453-8.402
		c3.936-1.513,20.272-7.254,29.673-2.309c8.604,4.528,15.352,6.572,18.802,7.42c0.142,1.078,0.223,2.175,0.223,3.291
		c0,1.235-0.07,2.49-0.205,3.752l-0.05,0.344c-0.037,0.177-0.142,1.098-0.446,2.932c-2.083,10.658-8.712,20.909-18.353,22.402
		l-2.541,0.394l-0.003,16.369h21.537c3.121,0,5.88,1.989,6.867,4.949l3.421,10.263l5.692-1.896l-3.421-10.263
		c-1.805-5.415-6.853-9.053-12.56-9.053h-15.534v-5.388c6.048-1.711,11.447-6.093,15.4-12.563c0.633-1.036,1.206-2.128,1.75-3.241
		c1.977,4.951,5.587,10.511,12.062,15.729l3.766-4.672c-10.672-8.601-12.108-18.02-12.101-22.505
		c0.456-2.515,0.718-5.055,0.718-7.554c0-17.135-13.94-31.075-31.075-31.075s-31.075,13.94-31.075,31.075
		c0,2.599,0.278,5.241,0.771,7.854c-0.058,4.595-1.659,13.79-12.099,22.204l3.766,4.672c6.449-5.198,10.055-10.732,12.037-15.669
		c0.536,1.093,1.099,2.163,1.721,3.181c3.953,6.47,9.353,10.852,15.401,12.563v5.388h-15.535c-5.708,0-10.755,3.638-12.561,9.053
		l-3.425,10.276l5.692,1.896l3.425-10.276c0.987-2.96,3.747-4.949,6.868-4.949h21.535v-16.369l-2.541-0.394
		c-9.551-1.479-16.147-11.55-18.296-22.099L199.755,85.851z M233.47,66.069c-8.427-4.436-20.249-2.374-27.946-0.2
		c4.603-5.412,11.455-8.855,19.1-8.855c10.254,0,19.084,6.188,22.966,15.024C244.175,70.969,239.296,69.135,233.47,66.069z"/>
</g>
</svg>
