<?xml version="1.0" encoding="utf-8"?>
<!-- Generator: Adobe Illustrator 16.0.0, SVG Export Plug-In . SVG Version: 6.00 Build 0)  -->
<!DOCTYPE svg PUBLIC "-//W3C//DTD SVG 1.1//EN" "http://www.w3.org/Graphics/SVG/1.1/DTD/svg11.dtd">
<svg version="1.1" id="Layer_8" xmlns="http://www.w3.org/2000/svg" xmlns:xlink="http://www.w3.org/1999/xlink" x="0px" y="0px"
	 width="325.305px" height="207.37px" viewBox="0 0 325.305 207.37" enable-background="new 0 0 325.305 207.37"
	 xml:space="preserve">
<g>
	<g>
		<g>
			<g>
				<path fill="#FFFFFF" d="M142.852,100.634c-11.02,0-19.985-8.961-19.985-19.977c0-11.023,8.965-19.994,19.985-19.994
					c11.02,0,19.985,8.971,19.985,19.994C162.837,91.673,153.872,100.634,142.852,100.634z M142.852,66.664
					c-7.712,0-13.985,6.277-13.985,13.994c0,7.707,6.273,13.977,13.985,13.977c7.711,0,13.985-6.27,13.985-13.977
					C156.837,72.941,150.563,66.664,142.852,66.664z"/>
			</g>
		</g>
		<g>
			<polygon fill="#FFFFFF" points="165.371,136.339 161.484,112.652 150.403,108.984 152.288,103.289 166.817,108.097 
				171.29,135.369 			"/>
		</g>
		<g>
			<polygon fill="#FFFFFF" points="120.333,136.339 114.414,135.369 118.887,108.097 133.416,103.289 135.301,108.984 
				124.219,112.652 			"/>
		</g>
		<g>
			<g>
				<rect x="181.07" y="69.156" fill="#FFFFFF" width="16.985" height="6"/>
			</g>
			<g>
				<rect x="181.07" y="86.142" fill="#FFFFFF" width="33.972" height="6"/>
			</g>
			<g>
				<rect x="181.07" y="103.128" fill="#FFFFFF" width="33.972" height="6"/>
			</g>
			<g>
				<rect x="181.07" y="120.113" fill="#FFFFFF" width="33.972" height="6"/>
			</g>
		</g>
	</g>
	<g>
		<rect x="142.852" y="145.593" fill="#FFFFFF" width="42.464" height="6"/>
	</g>
	<g>
		<polygon fill="#FFFFFF" points="230.78,151.593 193.809,151.593 193.809,145.593 224.78,145.593 224.78,49.677 103.387,49.677 
			103.387,145.593 134.359,145.593 134.359,151.593 97.387,151.593 97.387,43.677 230.78,43.677 		"/>
	</g>
</g>
</svg>
