<?xml version="1.0" encoding="utf-8"?>
<!-- Generator: Adobe Illustrator 16.0.0, SVG Export Plug-In . SVG Version: 6.00 Build 0)  -->
<!DOCTYPE svg PUBLIC "-//W3C//DTD SVG 1.1//EN" "http://www.w3.org/Graphics/SVG/1.1/DTD/svg11.dtd">
<svg version="1.1" id="Layer_2" xmlns="http://www.w3.org/2000/svg" xmlns:xlink="http://www.w3.org/1999/xlink" x="0px" y="0px"
	 width="325.305px" height="207.371px" viewBox="0 0 325.305 207.371" enable-background="new 0 0 325.305 207.371"
	 xml:space="preserve">
<g>
	<g>
		<path fill="#FFFFFF" d="M215.215,133.253c7.721-4.699,12.756-13.092,12.756-22.826c0-14.771-12.085-26.854-26.854-26.854
			c-14.771,0-26.855,12.084-26.855,26.854c0,9.734,5.036,18.127,12.756,22.826c-13.428,5.035-23.498,16.785-26.184,30.883h6.714
			c3.356-15.441,17.12-26.854,33.568-26.854s30.211,11.412,33.567,26.854h6.713C238.713,149.703,228.643,137.955,215.215,133.253z
			 M180.977,110.427c0-11.076,9.063-20.141,20.141-20.141c11.076,0,20.141,9.064,20.141,20.141c0,11.078-9.063,20.141-20.141,20.141
			S180.977,121.505,180.977,110.427z"/>
	</g>
	<g>
		<polygon fill="#FFFFFF" points="150.607,134.64 80.602,134.64 80.602,39.58 201.936,39.58 201.936,45.58 86.602,45.58 
			86.602,128.64 150.607,128.64 		"/>
	</g>
</g>
</svg>
