<?xml version="1.0" encoding="utf-8"?>
<!-- Generator: Adobe Illustrator 16.0.0, SVG Export Plug-In . SVG Version: 6.00 Build 0)  -->
<!DOCTYPE svg PUBLIC "-//W3C//DTD SVG 1.1//EN" "http://www.w3.org/Graphics/SVG/1.1/DTD/svg11.dtd">
<svg version="1.1" id="Layer_8" xmlns="http://www.w3.org/2000/svg" xmlns:xlink="http://www.w3.org/1999/xlink" x="0px" y="0px"
	 width="325.305px" height="207.37px" viewBox="0 0 325.305 207.37" enable-background="new 0 0 325.305 207.37"
	 xml:space="preserve">
<g>
	<g>
		<g>
			<path fill="#FFFFFF" d="M179.482,115.247l-5.354-2.707l8.483-16.783l0.339-0.339c11.191-11.191,11.191-29.401,0-40.593
				s-29.403-11.193-40.596,0c-11.19,11.191-11.19,29.401,0,40.593l0.342,0.342l8.437,16.787l-5.361,2.693l-8.007-15.932
				c-13.183-13.558-13.066-35.312,0.347-48.726c13.533-13.532,35.551-13.53,49.082,0c13.414,13.415,13.529,35.171,0.345,48.729
				L179.482,115.247z"/>
		</g>
		<g>
			
				<rect x="159.653" y="108.427" transform="matrix(0.1203 0.9927 -0.9927 0.1203 264.8214 -53.599)" fill="#FFFFFF" width="6.001" height="28.387"/>
		</g>
		<g>
			
				<rect x="159.653" y="118.995" transform="matrix(0.1203 0.9927 -0.9927 0.1203 275.3126 -44.3021)" fill="#FFFFFF" width="6.001" height="28.388"/>
		</g>
		<g>
			<path fill="#FFFFFF" d="M162.57,152.095c-5.539,0-10.046-4.506-10.046-10.045h6c0,2.23,1.815,4.045,4.046,4.045
				s4.045-1.814,4.045-4.045h6C172.615,147.589,168.109,152.095,162.57,152.095z"/>
		</g>
	</g>
	<g>
		<g>
			<path fill="#FFFFFF" d="M148.039,75.12h-6c0-11.366,9.247-20.613,20.613-20.613v6C154.595,60.506,148.039,67.062,148.039,75.12z"
				/>
		</g>
	</g>
</g>
</svg>
